<svg width="1089" height="131" viewBox="0 0 1089 131" fill="none" xmlns="http://www.w3.org/2000/svg">
<path d="M43.511 51.14C51.6143 51.14 58.7544 52.84 64.931 56.24C71.1644 59.64 76.0377 64.3717 79.551 70.435C83.0644 76.4417 84.821 83.3833 84.821 91.26C84.821 98.9667 82.9794 105.795 79.296 111.745C75.6694 117.638 70.6544 122.285 64.251 125.685C57.8477 129.028 50.481 130.7 42.151 130.7C34.0477 130.7 26.8794 129.028 20.646 125.685C14.4694 122.342 9.62435 117.723 6.11102 111.83C2.59768 105.88 0.841016 99.0233 0.841016 91.26C0.841016 83.5533 2.68268 76.6967 6.36602 70.69C10.106 64.6267 15.1777 59.8667 21.581 56.41C28.041 52.8967 35.351 51.14 43.511 51.14ZM48.356 129C50.396 128.717 51.8977 127.13 52.861 124.24C53.881 121.35 54.3627 117.043 54.306 111.32C54.2494 105.597 53.5977 98.4 52.351 89.73C51.1044 81.06 49.716 73.9767 48.186 68.48C46.7127 62.9267 45.0977 58.9033 43.341 56.41C41.5844 53.86 39.6577 52.755 37.561 53.095C35.5777 53.435 34.076 55.05 33.056 57.94C32.0927 60.83 31.6677 65.1083 31.781 70.775C31.8944 76.4417 32.546 83.61 33.736 92.28C34.9827 100.95 36.3427 108.062 37.816 113.615C39.2894 119.112 40.9044 123.135 42.661 125.685C44.4177 128.178 46.316 129.283 48.356 129ZM150.966 127.13V114.55V113.955V63.38C150.966 62.9267 150.853 62.5867 150.626 62.36C150.4 62.1333 150.031 62.02 149.521 62.02H146.206C145.81 62.02 145.526 61.9633 145.356 61.85C145.243 61.68 145.186 61.4817 145.186 61.255C145.186 61.0283 145.271 60.8583 145.441 60.745C145.611 60.6317 145.81 60.5467 146.036 60.49L178.251 51.565C178.875 51.395 179.328 51.2817 179.611 51.225C179.895 51.1683 180.206 51.14 180.546 51.14C180.943 51.14 181.226 51.2533 181.396 51.48C181.623 51.7067 181.736 51.99 181.736 52.33V123.56C181.736 124.467 181.878 125.203 182.161 125.77C182.501 126.28 183.04 126.62 183.776 126.79L187.006 127.555C187.403 127.612 187.658 127.725 187.771 127.895C187.941 128.008 188.026 128.15 188.026 128.32C188.026 128.547 187.941 128.717 187.771 128.83C187.658 128.943 187.46 129 187.176 129H153.006C152.326 129 151.816 128.83 151.476 128.49C151.136 128.15 150.966 127.697 150.966 127.13ZM102.091 110.47V63.38C102.091 62.9267 101.978 62.5867 101.751 62.36C101.525 62.1333 101.156 62.02 100.646 62.02H97.3314C96.9347 62.02 96.6514 61.9633 96.4814 61.85C96.3681 61.68 96.3114 61.4817 96.3114 61.255C96.3114 61.0283 96.3964 60.8583 96.5664 60.745C96.7364 60.6317 96.9347 60.5467 97.1614 60.49L129.376 51.565C130.056 51.395 130.51 51.2817 130.736 51.225C131.02 51.1683 131.331 51.14 131.671 51.14C132.068 51.14 132.351 51.2533 132.521 51.48C132.748 51.7067 132.861 51.99 132.861 52.33V107.24C132.861 110.697 133.513 113.247 134.816 114.89C136.176 116.477 138.188 117.27 140.851 117.27C142.551 117.27 144.251 116.93 145.951 116.25C147.708 115.57 149.295 114.607 150.711 113.36L153.941 110.555L155.131 111.83L151.731 114.805C145.385 120.302 139.52 124.325 134.136 126.875C128.81 129.425 124.05 130.7 119.856 130.7C114.586 130.7 110.308 129.113 107.021 125.94C103.735 122.767 102.091 117.61 102.091 110.47ZM235.312 83.1C235.312 76.0733 236.417 70.2083 238.627 65.505C240.894 60.745 243.784 57.175 247.297 54.795C250.811 52.3583 254.466 51.14 258.262 51.14C262.909 51.14 266.451 52.67 268.887 55.73C271.324 58.79 272.542 63.4367 272.542 69.67C272.542 75.79 271.097 80.3233 268.207 83.27C265.317 86.2167 261.691 87.69 257.327 87.69C253.304 87.69 250.386 86.6133 248.572 84.46C246.759 82.25 245.739 79.0767 245.512 74.94L245.342 71.71C245.286 70.4633 245.031 69.4433 244.577 68.65C244.124 67.8567 243.302 67.46 242.112 67.46C241.036 67.46 240.072 68.0267 239.222 69.16C238.429 70.2933 237.806 72.0783 237.352 74.515C236.899 76.9517 236.672 80.0967 236.672 83.95L235.312 83.1ZM236.672 53.01V79.19V122.71C236.672 123.447 236.871 124.127 237.267 124.75C237.664 125.373 238.202 125.77 238.882 125.94L247.212 127.64C247.552 127.697 247.779 127.782 247.892 127.895C248.006 128.008 248.062 128.15 248.062 128.32C248.062 128.547 247.977 128.717 247.807 128.83C247.637 128.943 247.382 129 247.042 129H200.632C200.292 129 200.037 128.943 199.867 128.83C199.697 128.66 199.612 128.49 199.612 128.32C199.612 128.15 199.726 127.98 199.952 127.81C200.179 127.64 200.462 127.527 200.802 127.47L203.862 126.79C204.656 126.62 205.194 126.308 205.477 125.855C205.761 125.345 205.902 124.75 205.902 124.07V62.53C205.902 62.02 205.789 61.6233 205.562 61.34C205.392 61 205.052 60.83 204.542 60.83H200.802C200.576 60.83 200.377 60.7733 200.207 60.66C200.037 60.49 199.952 60.32 199.952 60.15C199.952 59.98 200.037 59.81 200.207 59.64C200.377 59.47 200.632 59.3567 200.972 59.3L233.272 51.99C233.782 51.8767 234.179 51.7917 234.462 51.735C234.802 51.6783 235.142 51.65 235.482 51.65C235.936 51.65 236.247 51.7917 236.417 52.075C236.587 52.3583 236.672 52.67 236.672 53.01ZM387.885 73.58C387.885 77.83 386.667 81.23 384.23 83.78C381.85 86.2733 378.478 87.52 374.115 87.52C369.695 87.52 366.238 86.2167 363.745 83.61C361.252 80.9467 360.005 77.0933 360.005 72.05V63.55C360.005 60.15 359.438 57.5717 358.305 55.815C357.172 54.0583 355.67 53.18 353.8 53.18C351.817 53.18 350.088 54.1717 348.615 56.155C347.142 58.0817 346.008 60.9433 345.215 64.74C344.478 68.48 344.11 73.07 344.11 78.51C344.11 85.7633 345.045 91.8833 346.915 96.87C348.842 101.857 351.477 105.625 354.82 108.175C358.22 110.725 362.13 112 366.55 112C371.593 112 375.815 111.122 379.215 109.365C382.615 107.552 384.768 104.633 385.675 100.61C385.732 100.327 385.817 100.128 385.93 100.015C386.1 99.9017 386.27 99.8733 386.44 99.93C386.61 99.9867 386.723 100.1 386.78 100.27C386.893 100.44 386.922 100.667 386.865 100.95C385.902 107.183 383.833 112.51 380.66 116.93C377.487 121.35 373.378 124.75 368.335 127.13C363.348 129.51 357.568 130.7 350.995 130.7C344.025 130.7 337.82 129.312 332.38 126.535C326.94 123.702 322.662 119.508 319.545 113.955C316.428 108.345 314.87 101.403 314.87 93.13C314.87 84.9133 316.627 77.66 320.14 71.37C323.653 65.08 328.47 60.15 334.59 56.58C340.767 52.9533 347.85 51.14 355.84 51.14C362.98 51.14 368.902 52.1317 373.605 54.115C378.365 56.0417 381.935 58.705 384.315 62.105C386.695 65.4483 387.885 69.2733 387.885 73.58ZM442.251 51.14C450.355 51.14 457.495 52.84 463.671 56.24C469.905 59.64 474.778 64.3717 478.291 70.435C481.805 76.4417 483.561 83.3833 483.561 91.26C483.561 98.9667 481.72 105.795 478.036 111.745C474.41 117.638 469.395 122.285 462.991 125.685C456.588 129.028 449.221 130.7 440.891 130.7C432.788 130.7 425.62 129.028 419.386 125.685C413.21 122.342 408.365 117.723 404.851 111.83C401.338 105.88 399.581 99.0233 399.581 91.26C399.581 83.5533 401.423 76.6967 405.106 70.69C408.846 64.6267 413.918 59.8667 420.321 56.41C426.781 52.8967 434.091 51.14 442.251 51.14ZM447.096 129C449.136 128.717 450.638 127.13 451.601 124.24C452.621 121.35 453.103 117.043 453.046 111.32C452.99 105.597 452.338 98.4 451.091 89.73C449.845 81.06 448.456 73.9767 446.926 68.48C445.453 62.9267 443.838 58.9033 442.081 56.41C440.325 53.86 438.398 52.755 436.301 53.095C434.318 53.435 432.816 55.05 431.796 57.94C430.833 60.83 430.408 65.1083 430.521 70.775C430.635 76.4417 431.286 83.61 432.476 92.28C433.723 100.95 435.083 108.062 436.556 113.615C438.03 119.112 439.645 123.135 441.401 125.685C443.158 128.178 445.056 129.283 447.096 129ZM533.302 1.84V123.56C533.302 124.467 533.443 125.203 533.727 125.77C534.067 126.28 534.605 126.62 535.342 126.79L538.572 127.555C538.968 127.612 539.223 127.725 539.337 127.895C539.507 128.008 539.592 128.15 539.592 128.32C539.592 128.547 539.507 128.717 539.337 128.83C539.223 128.943 539.025 129 538.742 129H497.092C496.865 129 496.667 128.943 496.497 128.83C496.327 128.717 496.242 128.547 496.242 128.32C496.242 128.15 496.298 128.008 496.412 127.895C496.582 127.725 496.865 127.612 497.262 127.555L500.492 126.79C501.285 126.62 501.823 126.28 502.107 125.77C502.39 125.203 502.532 124.467 502.532 123.56V12.89C502.532 12.4367 502.418 12.0967 502.192 11.87C501.965 11.6433 501.597 11.53 501.087 11.53H497.772C497.375 11.53 497.092 11.4733 496.922 11.36C496.808 11.19 496.752 10.9917 496.752 10.765C496.752 10.5383 496.837 10.3683 497.007 10.255C497.177 10.1417 497.375 10.0567 497.602 9.99999L529.817 1.07499C530.497 0.904996 530.95 0.791664 531.177 0.734995C531.46 0.678325 531.772 0.649991 532.112 0.649991C532.508 0.649991 532.792 0.763326 532.962 0.989996C533.188 1.21666 533.302 1.49999 533.302 1.84ZM588.944 1.84V123.56C588.944 124.467 589.086 125.203 589.369 125.77C589.709 126.28 590.248 126.62 590.984 126.79L594.214 127.555C594.611 127.612 594.866 127.725 594.979 127.895C595.149 128.008 595.234 128.15 595.234 128.32C595.234 128.547 595.149 128.717 594.979 128.83C594.866 128.943 594.668 129 594.384 129H552.734C552.508 129 552.309 128.943 552.139 128.83C551.969 128.717 551.884 128.547 551.884 128.32C551.884 128.15 551.941 128.008 552.054 127.895C552.224 127.725 552.508 127.612 552.904 127.555L556.134 126.79C556.928 126.62 557.466 126.28 557.749 125.77C558.033 125.203 558.174 124.467 558.174 123.56V12.89C558.174 12.4367 558.061 12.0967 557.834 11.87C557.608 11.6433 557.239 11.53 556.729 11.53H553.414C553.018 11.53 552.734 11.4733 552.564 11.36C552.451 11.19 552.394 10.9917 552.394 10.765C552.394 10.5383 552.479 10.3683 552.649 10.255C552.819 10.1417 553.018 10.0567 553.244 9.99999L585.459 1.07499C586.139 0.904996 586.593 0.791664 586.819 0.734995C587.103 0.678325 587.414 0.649991 587.754 0.649991C588.151 0.649991 588.434 0.763326 588.604 0.989996C588.831 1.21666 588.944 1.49999 588.944 1.84ZM683.347 86.84C683.347 87.4067 683.148 87.8883 682.752 88.285C682.412 88.6817 681.817 88.88 680.967 88.88H627.757V86.84H651.387C652.407 86.84 652.917 86.2167 652.917 84.97C652.917 73.58 651.868 65.42 649.772 60.49C647.732 55.5033 645.607 53.01 643.397 53.01C641.867 53.01 640.45 53.8317 639.147 55.475C637.843 57.0617 636.767 59.8383 635.917 63.805C635.123 67.7717 634.727 73.24 634.727 80.21C634.727 91.94 637.078 100.497 641.782 105.88C646.485 111.207 652.747 113.87 660.567 113.87C666.857 113.87 671.957 112.312 675.867 109.195C679.833 106.022 681.817 101.8 681.817 96.53C681.817 96.2467 681.873 96.0767 681.987 96.02C682.157 95.9067 682.27 95.85 682.327 95.85C682.497 95.85 682.638 95.9067 682.752 96.02C682.922 96.1333 683.007 96.36 683.007 96.7C683.007 103.16 681.363 108.968 678.077 114.125C674.847 119.225 670.427 123.277 664.817 126.28C659.207 129.227 652.86 130.7 645.777 130.7C638.07 130.7 631.242 129.057 625.292 125.77C619.342 122.483 614.667 117.922 611.267 112.085C607.867 106.248 606.167 99.5333 606.167 91.94C606.167 83.44 607.838 76.1583 611.182 70.095C614.525 63.975 619.257 59.3 625.377 56.07C631.553 52.7833 638.807 51.14 647.137 51.14C654.56 51.14 660.963 52.6983 666.347 55.815C671.787 58.9317 675.98 63.1817 678.927 68.565C681.873 73.9483 683.347 80.04 683.347 86.84ZM767.533 73.58C767.533 77.83 766.315 81.23 763.878 83.78C761.498 86.2733 758.127 87.52 753.763 87.52C749.343 87.52 745.887 86.2167 743.393 83.61C740.9 80.9467 739.653 77.0933 739.653 72.05V63.55C739.653 60.15 739.087 57.5717 737.953 55.815C736.82 54.0583 735.318 53.18 733.448 53.18C731.465 53.18 729.737 54.1717 728.263 56.155C726.79 58.0817 725.657 60.9433 724.863 64.74C724.127 68.48 723.758 73.07 723.758 78.51C723.758 85.7633 724.693 91.8833 726.563 96.87C728.49 101.857 731.125 105.625 734.468 108.175C737.868 110.725 741.778 112 746.198 112C751.242 112 755.463 111.122 758.863 109.365C762.263 107.552 764.417 104.633 765.323 100.61C765.38 100.327 765.465 100.128 765.578 100.015C765.748 99.9017 765.918 99.8733 766.088 99.93C766.258 99.9867 766.372 100.1 766.428 100.27C766.542 100.44 766.57 100.667 766.513 100.95C765.55 107.183 763.482 112.51 760.308 116.93C757.135 121.35 753.027 124.75 747.983 127.13C742.997 129.51 737.217 130.7 730.643 130.7C723.673 130.7 717.468 129.312 712.028 126.535C706.588 123.702 702.31 119.508 699.193 113.955C696.077 108.345 694.518 101.403 694.518 93.13C694.518 84.9133 696.275 77.66 699.788 71.37C703.302 65.08 708.118 60.15 714.238 56.58C720.415 52.9533 727.498 51.14 735.488 51.14C742.628 51.14 748.55 52.1317 753.253 54.115C758.013 56.0417 761.583 58.705 763.963 62.105C766.343 65.4483 767.533 69.2733 767.533 73.58ZM783.48 56.07L777.19 54.37C776.793 54.2567 776.538 54.1433 776.425 54.03C776.255 53.86 776.17 53.69 776.17 53.52C776.17 53.35 776.255 53.2083 776.425 53.095C776.538 52.925 776.68 52.84 776.85 52.84H783.65C783.82 52.84 783.99 52.8117 784.16 52.755C784.386 52.6983 784.67 52.5567 785.01 52.33L809.83 34.82C810.283 34.48 810.765 34.1967 811.275 33.97C811.785 33.7433 812.21 33.63 812.55 33.63C813.003 33.63 813.371 33.8 813.655 34.14C813.938 34.4233 814.08 34.8767 814.08 35.5V104.35C814.08 109.393 814.986 113.162 816.8 115.655C818.613 118.092 821.05 119.31 824.11 119.31C825.13 119.31 826.093 119.14 827 118.8C827.963 118.46 828.841 117.893 829.635 117.1C830.428 116.307 831.136 115.23 831.76 113.87C832.383 112.51 832.893 110.81 833.29 108.77C833.403 108.317 833.63 108.09 833.97 108.09C834.31 108.09 834.423 108.317 834.31 108.77C833.46 113.7 832.071 117.78 830.145 121.01C828.275 124.24 825.696 126.677 822.41 128.32C819.18 129.907 815.1 130.7 810.17 130.7C801.783 130.7 795.408 128.773 791.045 124.92C786.681 121.067 784.5 115.117 784.5 107.07V57.6C784.5 57.09 784.443 56.7217 784.33 56.495C784.216 56.2683 783.933 56.1267 783.48 56.07ZM805.24 55.05L806.26 52.84H833.97C834.253 52.84 834.451 52.8967 834.565 53.01C834.735 53.0667 834.82 53.2367 834.82 53.52C834.82 53.9167 834.593 54.285 834.14 54.625C833.686 54.9083 833.063 55.05 832.27 55.05H805.24ZM881.387 51.99V123.56C881.387 124.467 881.529 125.203 881.812 125.77C882.152 126.28 882.691 126.62 883.427 126.79L886.657 127.555C887.054 127.612 887.309 127.725 887.422 127.895C887.592 128.008 887.677 128.15 887.677 128.32C887.677 128.547 887.592 128.717 887.422 128.83C887.309 128.943 887.111 129 886.827 129H845.177C844.951 129 844.752 128.943 844.582 128.83C844.412 128.717 844.327 128.547 844.327 128.32C844.327 128.15 844.384 128.008 844.497 127.895C844.667 127.725 844.951 127.612 845.347 127.555L848.577 126.79C849.371 126.62 849.909 126.28 850.192 125.77C850.476 125.203 850.617 124.467 850.617 123.56V63.04C850.617 62.5867 850.504 62.2467 850.277 62.02C850.051 61.7933 849.682 61.68 849.172 61.68H845.857C845.461 61.68 845.177 61.6233 845.007 61.51C844.894 61.34 844.837 61.1417 844.837 60.915C844.837 60.6883 844.922 60.5183 845.092 60.405C845.262 60.2917 845.461 60.2067 845.687 60.15L877.902 51.225C878.582 51.055 879.036 50.9417 879.262 50.885C879.546 50.8283 879.857 50.8 880.197 50.8C880.594 50.8 880.877 50.9133 881.047 51.14C881.274 51.3667 881.387 51.65 881.387 51.99ZM865.662 45.955C860.506 45.955 856.312 44.3117 853.082 41.025C849.852 37.7383 848.237 33.715 848.237 28.955C848.237 24.195 849.852 20.1717 853.082 16.885C856.312 13.5983 860.506 11.955 865.662 11.955C870.876 11.955 875.126 13.5983 878.412 16.885C881.756 20.1717 883.427 24.195 883.427 28.955C883.427 33.715 881.756 37.7383 878.412 41.025C875.126 44.3117 870.876 45.955 865.662 45.955ZM941.32 51.14C949.423 51.14 956.563 52.84 962.74 56.24C968.973 59.64 973.846 64.3717 977.36 70.435C980.873 76.4417 982.63 83.3833 982.63 91.26C982.63 98.9667 980.788 105.795 977.105 111.745C973.478 117.638 968.463 122.285 962.06 125.685C955.656 129.028 948.29 130.7 939.96 130.7C931.856 130.7 924.688 129.028 918.455 125.685C912.278 122.342 907.433 117.723 903.92 111.83C900.406 105.88 898.65 99.0233 898.65 91.26C898.65 83.5533 900.491 76.6967 904.175 70.69C907.915 64.6267 912.986 59.8667 919.39 56.41C925.85 52.8967 933.16 51.14 941.32 51.14ZM946.165 129C948.205 128.717 949.706 127.13 950.67 124.24C951.69 121.35 952.171 117.043 952.115 111.32C952.058 105.597 951.406 98.4 950.16 89.73C948.913 81.06 947.525 73.9767 945.995 68.48C944.521 62.9267 942.906 58.9033 941.15 56.41C939.393 53.86 937.466 52.755 935.37 53.095C933.386 53.435 931.885 55.05 930.865 57.94C929.901 60.83 929.476 65.1083 929.59 70.775C929.703 76.4417 930.355 83.61 931.545 92.28C932.791 100.95 934.151 108.062 935.625 113.615C937.098 119.112 938.713 123.135 940.47 125.685C942.226 128.178 944.125 129.283 946.165 129ZM1031.52 51.99V123.56C1031.52 124.467 1031.66 125.203 1031.95 125.77C1032.29 126.28 1032.82 126.62 1033.56 126.79L1036.79 127.555C1037.47 127.725 1037.81 127.98 1037.81 128.32C1037.81 128.773 1037.53 129 1036.96 129H995.31C995.083 129 994.885 128.943 994.715 128.83C994.545 128.717 994.46 128.547 994.46 128.32C994.46 128.15 994.517 128.008 994.63 127.895C994.8 127.725 995.083 127.612 995.48 127.555L998.71 126.79C999.503 126.62 1000.04 126.28 1000.33 125.77C1000.61 125.203 1000.75 124.467 1000.75 123.56V63.04C1000.75 62.5867 1000.64 62.2467 1000.41 62.02C1000.18 61.7933 999.815 61.68 999.305 61.68H995.99C995.593 61.68 995.31 61.6233 995.14 61.51C995.027 61.34 994.97 61.1417 994.97 60.915C994.97 60.6883 995.055 60.5183 995.225 60.405C995.395 60.2917 995.593 60.2067 995.82 60.15L1028.04 51.225C1028.72 51.055 1029.17 50.9417 1029.4 50.885C1029.68 50.8283 1029.99 50.8 1030.33 50.8C1030.73 50.8 1031.01 50.9133 1031.18 51.14C1031.41 51.3667 1031.52 51.65 1031.52 51.99ZM1028.97 71.285L1027.78 70.01L1031.18 67.035C1037.13 61.8217 1042.46 57.8833 1047.16 55.22C1051.86 52.5 1056.06 51.14 1059.74 51.14C1064.78 51.14 1068.69 52.585 1071.47 55.475C1074.3 58.3083 1076.06 62.9267 1076.74 69.33L1082.52 123.56C1082.63 124.467 1082.8 125.203 1083.03 125.77C1083.31 126.28 1083.82 126.62 1084.56 126.79L1087.79 127.555C1088.19 127.612 1088.44 127.725 1088.56 127.895C1088.73 128.008 1088.81 128.15 1088.81 128.32C1088.81 128.547 1088.73 128.717 1088.56 128.83C1088.44 128.943 1088.24 129 1087.96 129H1045.55C1044.98 129 1044.7 128.773 1044.7 128.32C1044.7 127.98 1045.04 127.725 1045.72 127.555L1048.95 126.79C1049.74 126.62 1050.31 126.28 1050.65 125.77C1050.99 125.203 1051.1 124.467 1050.99 123.56L1046.48 72.56C1046.25 69.7833 1045.69 67.7717 1044.78 66.525C1043.87 65.2217 1042.4 64.57 1040.36 64.57C1038.94 64.57 1037.56 64.9383 1036.2 65.675C1034.89 66.355 1033.56 67.29 1032.2 68.48L1028.97 71.285Z" fill="#CBCBCB" fill-opacity="0.6"/>
<path d="M43.511 51.14C51.6143 51.14 58.7544 52.84 64.931 56.24C71.1644 59.64 76.0377 64.3717 79.551 70.435C83.0644 76.4417 84.821 83.3833 84.821 91.26C84.821 98.9667 82.9794 105.795 79.296 111.745C75.6694 117.638 70.6544 122.285 64.251 125.685C57.8477 129.028 50.481 130.7 42.151 130.7C34.0477 130.7 26.8794 129.028 20.646 125.685C14.4694 122.342 9.62435 117.723 6.11102 111.83C2.59768 105.88 0.841016 99.0233 0.841016 91.26C0.841016 83.5533 2.68268 76.6967 6.36602 70.69C10.106 64.6267 15.1777 59.8667 21.581 56.41C28.041 52.8967 35.351 51.14 43.511 51.14ZM48.356 129C50.396 128.717 51.8977 127.13 52.861 124.24C53.881 121.35 54.3627 117.043 54.306 111.32C54.2494 105.597 53.5977 98.4 52.351 89.73C51.1044 81.06 49.716 73.9767 48.186 68.48C46.7127 62.9267 45.0977 58.9033 43.341 56.41C41.5844 53.86 39.6577 52.755 37.561 53.095C35.5777 53.435 34.076 55.05 33.056 57.94C32.0927 60.83 31.6677 65.1083 31.781 70.775C31.8944 76.4417 32.546 83.61 33.736 92.28C34.9827 100.95 36.3427 108.062 37.816 113.615C39.2894 119.112 40.9044 123.135 42.661 125.685C44.4177 128.178 46.316 129.283 48.356 129ZM150.966 127.13V114.55V113.955V63.38C150.966 62.9267 150.853 62.5867 150.626 62.36C150.4 62.1333 150.031 62.02 149.521 62.02H146.206C145.81 62.02 145.526 61.9633 145.356 61.85C145.243 61.68 145.186 61.4817 145.186 61.255C145.186 61.0283 145.271 60.8583 145.441 60.745C145.611 60.6317 145.81 60.5467 146.036 60.49L178.251 51.565C178.875 51.395 179.328 51.2817 179.611 51.225C179.895 51.1683 180.206 51.14 180.546 51.14C180.943 51.14 181.226 51.2533 181.396 51.48C181.623 51.7067 181.736 51.99 181.736 52.33V123.56C181.736 124.467 181.878 125.203 182.161 125.77C182.501 126.28 183.04 126.62 183.776 126.79L187.006 127.555C187.403 127.612 187.658 127.725 187.771 127.895C187.941 128.008 188.026 128.15 188.026 128.32C188.026 128.547 187.941 128.717 187.771 128.83C187.658 128.943 187.46 129 187.176 129H153.006C152.326 129 151.816 128.83 151.476 128.49C151.136 128.15 150.966 127.697 150.966 127.13ZM102.091 110.47V63.38C102.091 62.9267 101.978 62.5867 101.751 62.36C101.525 62.1333 101.156 62.02 100.646 62.02H97.3314C96.9347 62.02 96.6514 61.9633 96.4814 61.85C96.3681 61.68 96.3114 61.4817 96.3114 61.255C96.3114 61.0283 96.3964 60.8583 96.5664 60.745C96.7364 60.6317 96.9347 60.5467 97.1614 60.49L129.376 51.565C130.056 51.395 130.51 51.2817 130.736 51.225C131.02 51.1683 131.331 51.14 131.671 51.14C132.068 51.14 132.351 51.2533 132.521 51.48C132.748 51.7067 132.861 51.99 132.861 52.33V107.24C132.861 110.697 133.513 113.247 134.816 114.89C136.176 116.477 138.188 117.27 140.851 117.27C142.551 117.27 144.251 116.93 145.951 116.25C147.708 115.57 149.295 114.607 150.711 113.36L153.941 110.555L155.131 111.83L151.731 114.805C145.385 120.302 139.52 124.325 134.136 126.875C128.81 129.425 124.05 130.7 119.856 130.7C114.586 130.7 110.308 129.113 107.021 125.94C103.735 122.767 102.091 117.61 102.091 110.47ZM235.312 83.1C235.312 76.0733 236.417 70.2083 238.627 65.505C240.894 60.745 243.784 57.175 247.297 54.795C250.811 52.3583 254.466 51.14 258.262 51.14C262.909 51.14 266.451 52.67 268.887 55.73C271.324 58.79 272.542 63.4367 272.542 69.67C272.542 75.79 271.097 80.3233 268.207 83.27C265.317 86.2167 261.691 87.69 257.327 87.69C253.304 87.69 250.386 86.6133 248.572 84.46C246.759 82.25 245.739 79.0767 245.512 74.94L245.342 71.71C245.286 70.4633 245.031 69.4433 244.577 68.65C244.124 67.8567 243.302 67.46 242.112 67.46C241.036 67.46 240.072 68.0267 239.222 69.16C238.429 70.2933 237.806 72.0783 237.352 74.515C236.899 76.9517 236.672 80.0967 236.672 83.95L235.312 83.1ZM236.672 53.01V79.19V122.71C236.672 123.447 236.871 124.127 237.267 124.75C237.664 125.373 238.202 125.77 238.882 125.94L247.212 127.64C247.552 127.697 247.779 127.782 247.892 127.895C248.006 128.008 248.062 128.15 248.062 128.32C248.062 128.547 247.977 128.717 247.807 128.83C247.637 128.943 247.382 129 247.042 129H200.632C200.292 129 200.037 128.943 199.867 128.83C199.697 128.66 199.612 128.49 199.612 128.32C199.612 128.15 199.726 127.98 199.952 127.81C200.179 127.64 200.462 127.527 200.802 127.47L203.862 126.79C204.656 126.62 205.194 126.308 205.477 125.855C205.761 125.345 205.902 124.75 205.902 124.07V62.53C205.902 62.02 205.789 61.6233 205.562 61.34C205.392 61 205.052 60.83 204.542 60.83H200.802C200.576 60.83 200.377 60.7733 200.207 60.66C200.037 60.49 199.952 60.32 199.952 60.15C199.952 59.98 200.037 59.81 200.207 59.64C200.377 59.47 200.632 59.3567 200.972 59.3L233.272 51.99C233.782 51.8767 234.179 51.7917 234.462 51.735C234.802 51.6783 235.142 51.65 235.482 51.65C235.936 51.65 236.247 51.7917 236.417 52.075C236.587 52.3583 236.672 52.67 236.672 53.01ZM387.885 73.58C387.885 77.83 386.667 81.23 384.23 83.78C381.85 86.2733 378.478 87.52 374.115 87.52C369.695 87.52 366.238 86.2167 363.745 83.61C361.252 80.9467 360.005 77.0933 360.005 72.05V63.55C360.005 60.15 359.438 57.5717 358.305 55.815C357.172 54.0583 355.67 53.18 353.8 53.18C351.817 53.18 350.088 54.1717 348.615 56.155C347.142 58.0817 346.008 60.9433 345.215 64.74C344.478 68.48 344.11 73.07 344.11 78.51C344.11 85.7633 345.045 91.8833 346.915 96.87C348.842 101.857 351.477 105.625 354.82 108.175C358.22 110.725 362.13 112 366.55 112C371.593 112 375.815 111.122 379.215 109.365C382.615 107.552 384.768 104.633 385.675 100.61C385.732 100.327 385.817 100.128 385.93 100.015C386.1 99.9017 386.27 99.8733 386.44 99.93C386.61 99.9867 386.723 100.1 386.78 100.27C386.893 100.44 386.922 100.667 386.865 100.95C385.902 107.183 383.833 112.51 380.66 116.93C377.487 121.35 373.378 124.75 368.335 127.13C363.348 129.51 357.568 130.7 350.995 130.7C344.025 130.7 337.82 129.312 332.38 126.535C326.94 123.702 322.662 119.508 319.545 113.955C316.428 108.345 314.87 101.403 314.87 93.13C314.87 84.9133 316.627 77.66 320.14 71.37C323.653 65.08 328.47 60.15 334.59 56.58C340.767 52.9533 347.85 51.14 355.84 51.14C362.98 51.14 368.902 52.1317 373.605 54.115C378.365 56.0417 381.935 58.705 384.315 62.105C386.695 65.4483 387.885 69.2733 387.885 73.58ZM442.251 51.14C450.355 51.14 457.495 52.84 463.671 56.24C469.905 59.64 474.778 64.3717 478.291 70.435C481.805 76.4417 483.561 83.3833 483.561 91.26C483.561 98.9667 481.72 105.795 478.036 111.745C474.41 117.638 469.395 122.285 462.991 125.685C456.588 129.028 449.221 130.7 440.891 130.7C432.788 130.7 425.62 129.028 419.386 125.685C413.21 122.342 408.365 117.723 404.851 111.83C401.338 105.88 399.581 99.0233 399.581 91.26C399.581 83.5533 401.423 76.6967 405.106 70.69C408.846 64.6267 413.918 59.8667 420.321 56.41C426.781 52.8967 434.091 51.14 442.251 51.14ZM447.096 129C449.136 128.717 450.638 127.13 451.601 124.24C452.621 121.35 453.103 117.043 453.046 111.32C452.99 105.597 452.338 98.4 451.091 89.73C449.845 81.06 448.456 73.9767 446.926 68.48C445.453 62.9267 443.838 58.9033 442.081 56.41C440.325 53.86 438.398 52.755 436.301 53.095C434.318 53.435 432.816 55.05 431.796 57.94C430.833 60.83 430.408 65.1083 430.521 70.775C430.635 76.4417 431.286 83.61 432.476 92.28C433.723 100.95 435.083 108.062 436.556 113.615C438.03 119.112 439.645 123.135 441.401 125.685C443.158 128.178 445.056 129.283 447.096 129ZM533.302 1.84V123.56C533.302 124.467 533.443 125.203 533.727 125.77C534.067 126.28 534.605 126.62 535.342 126.79L538.572 127.555C538.968 127.612 539.223 127.725 539.337 127.895C539.507 128.008 539.592 128.15 539.592 128.32C539.592 128.547 539.507 128.717 539.337 128.83C539.223 128.943 539.025 129 538.742 129H497.092C496.865 129 496.667 128.943 496.497 128.83C496.327 128.717 496.242 128.547 496.242 128.32C496.242 128.15 496.298 128.008 496.412 127.895C496.582 127.725 496.865 127.612 497.262 127.555L500.492 126.79C501.285 126.62 501.823 126.28 502.107 125.77C502.39 125.203 502.532 124.467 502.532 123.56V12.89C502.532 12.4367 502.418 12.0967 502.192 11.87C501.965 11.6433 501.597 11.53 501.087 11.53H497.772C497.375 11.53 497.092 11.4733 496.922 11.36C496.808 11.19 496.752 10.9917 496.752 10.765C496.752 10.5383 496.837 10.3683 497.007 10.255C497.177 10.1417 497.375 10.0567 497.602 9.99999L529.817 1.07499C530.497 0.904996 530.95 0.791664 531.177 0.734995C531.46 0.678325 531.772 0.649991 532.112 0.649991C532.508 0.649991 532.792 0.763326 532.962 0.989996C533.188 1.21666 533.302 1.49999 533.302 1.84ZM588.944 1.84V123.56C588.944 124.467 589.086 125.203 589.369 125.77C589.709 126.28 590.248 126.62 590.984 126.79L594.214 127.555C594.611 127.612 594.866 127.725 594.979 127.895C595.149 128.008 595.234 128.15 595.234 128.32C595.234 128.547 595.149 128.717 594.979 128.83C594.866 128.943 594.668 129 594.384 129H552.734C552.508 129 552.309 128.943 552.139 128.83C551.969 128.717 551.884 128.547 551.884 128.32C551.884 128.15 551.941 128.008 552.054 127.895C552.224 127.725 552.508 127.612 552.904 127.555L556.134 126.79C556.928 126.62 557.466 126.28 557.749 125.77C558.033 125.203 558.174 124.467 558.174 123.56V12.89C558.174 12.4367 558.061 12.0967 557.834 11.87C557.608 11.6433 557.239 11.53 556.729 11.53H553.414C553.018 11.53 552.734 11.4733 552.564 11.36C552.451 11.19 552.394 10.9917 552.394 10.765C552.394 10.5383 552.479 10.3683 552.649 10.255C552.819 10.1417 553.018 10.0567 553.244 9.99999L585.459 1.07499C586.139 0.904996 586.593 0.791664 586.819 0.734995C587.103 0.678325 587.414 0.649991 587.754 0.649991C588.151 0.649991 588.434 0.763326 588.604 0.989996C588.831 1.21666 588.944 1.49999 588.944 1.84ZM683.347 86.84C683.347 87.4067 683.148 87.8883 682.752 88.285C682.412 88.6817 681.817 88.88 680.967 88.88H627.757V86.84H651.387C652.407 86.84 652.917 86.2167 652.917 84.97C652.917 73.58 651.868 65.42 649.772 60.49C647.732 55.5033 645.607 53.01 643.397 53.01C641.867 53.01 640.45 53.8317 639.147 55.475C637.843 57.0617 636.767 59.8383 635.917 63.805C635.123 67.7717 634.727 73.24 634.727 80.21C634.727 91.94 637.078 100.497 641.782 105.88C646.485 111.207 652.747 113.87 660.567 113.87C666.857 113.87 671.957 112.312 675.867 109.195C679.833 106.022 681.817 101.8 681.817 96.53C681.817 96.2467 681.873 96.0767 681.987 96.02C682.157 95.9067 682.27 95.85 682.327 95.85C682.497 95.85 682.638 95.9067 682.752 96.02C682.922 96.1333 683.007 96.36 683.007 96.7C683.007 103.16 681.363 108.968 678.077 114.125C674.847 119.225 670.427 123.277 664.817 126.28C659.207 129.227 652.86 130.7 645.777 130.7C638.07 130.7 631.242 129.057 625.292 125.77C619.342 122.483 614.667 117.922 611.267 112.085C607.867 106.248 606.167 99.5333 606.167 91.94C606.167 83.44 607.838 76.1583 611.182 70.095C614.525 63.975 619.257 59.3 625.377 56.07C631.553 52.7833 638.807 51.14 647.137 51.14C654.56 51.14 660.963 52.6983 666.347 55.815C671.787 58.9317 675.98 63.1817 678.927 68.565C681.873 73.9483 683.347 80.04 683.347 86.84ZM767.533 73.58C767.533 77.83 766.315 81.23 763.878 83.78C761.498 86.2733 758.127 87.52 753.763 87.52C749.343 87.52 745.887 86.2167 743.393 83.61C740.9 80.9467 739.653 77.0933 739.653 72.05V63.55C739.653 60.15 739.087 57.5717 737.953 55.815C736.82 54.0583 735.318 53.18 733.448 53.18C731.465 53.18 729.737 54.1717 728.263 56.155C726.79 58.0817 725.657 60.9433 724.863 64.74C724.127 68.48 723.758 73.07 723.758 78.51C723.758 85.7633 724.693 91.8833 726.563 96.87C728.49 101.857 731.125 105.625 734.468 108.175C737.868 110.725 741.778 112 746.198 112C751.242 112 755.463 111.122 758.863 109.365C762.263 107.552 764.417 104.633 765.323 100.61C765.38 100.327 765.465 100.128 765.578 100.015C765.748 99.9017 765.918 99.8733 766.088 99.93C766.258 99.9867 766.372 100.1 766.428 100.27C766.542 100.44 766.57 100.667 766.513 100.95C765.55 107.183 763.482 112.51 760.308 116.93C757.135 121.35 753.027 124.75 747.983 127.13C742.997 129.51 737.217 130.7 730.643 130.7C723.673 130.7 717.468 129.312 712.028 126.535C706.588 123.702 702.31 119.508 699.193 113.955C696.077 108.345 694.518 101.403 694.518 93.13C694.518 84.9133 696.275 77.66 699.788 71.37C703.302 65.08 708.118 60.15 714.238 56.58C720.415 52.9533 727.498 51.14 735.488 51.14C742.628 51.14 748.55 52.1317 753.253 54.115C758.013 56.0417 761.583 58.705 763.963 62.105C766.343 65.4483 767.533 69.2733 767.533 73.58ZM783.48 56.07L777.19 54.37C776.793 54.2567 776.538 54.1433 776.425 54.03C776.255 53.86 776.17 53.69 776.17 53.52C776.17 53.35 776.255 53.2083 776.425 53.095C776.538 52.925 776.68 52.84 776.85 52.84H783.65C783.82 52.84 783.99 52.8117 784.16 52.755C784.386 52.6983 784.67 52.5567 785.01 52.33L809.83 34.82C810.283 34.48 810.765 34.1967 811.275 33.97C811.785 33.7433 812.21 33.63 812.55 33.63C813.003 33.63 813.371 33.8 813.655 34.14C813.938 34.4233 814.08 34.8767 814.08 35.5V104.35C814.08 109.393 814.986 113.162 816.8 115.655C818.613 118.092 821.05 119.31 824.11 119.31C825.13 119.31 826.093 119.14 827 118.8C827.963 118.46 828.841 117.893 829.635 117.1C830.428 116.307 831.136 115.23 831.76 113.87C832.383 112.51 832.893 110.81 833.29 108.77C833.403 108.317 833.63 108.09 833.97 108.09C834.31 108.09 834.423 108.317 834.31 108.77C833.46 113.7 832.071 117.78 830.145 121.01C828.275 124.24 825.696 126.677 822.41 128.32C819.18 129.907 815.1 130.7 810.17 130.7C801.783 130.7 795.408 128.773 791.045 124.92C786.681 121.067 784.5 115.117 784.5 107.07V57.6C784.5 57.09 784.443 56.7217 784.33 56.495C784.216 56.2683 783.933 56.1267 783.48 56.07ZM805.24 55.05L806.26 52.84H833.97C834.253 52.84 834.451 52.8967 834.565 53.01C834.735 53.0667 834.82 53.2367 834.82 53.52C834.82 53.9167 834.593 54.285 834.14 54.625C833.686 54.9083 833.063 55.05 832.27 55.05H805.24ZM881.387 51.99V123.56C881.387 124.467 881.529 125.203 881.812 125.77C882.152 126.28 882.691 126.62 883.427 126.79L886.657 127.555C887.054 127.612 887.309 127.725 887.422 127.895C887.592 128.008 887.677 128.15 887.677 128.32C887.677 128.547 887.592 128.717 887.422 128.83C887.309 128.943 887.111 129 886.827 129H845.177C844.951 129 844.752 128.943 844.582 128.83C844.412 128.717 844.327 128.547 844.327 128.32C844.327 128.15 844.384 128.008 844.497 127.895C844.667 127.725 844.951 127.612 845.347 127.555L848.577 126.79C849.371 126.62 849.909 126.28 850.192 125.77C850.476 125.203 850.617 124.467 850.617 123.56V63.04C850.617 62.5867 850.504 62.2467 850.277 62.02C850.051 61.7933 849.682 61.68 849.172 61.68H845.857C845.461 61.68 845.177 61.6233 845.007 61.51C844.894 61.34 844.837 61.1417 844.837 60.915C844.837 60.6883 844.922 60.5183 845.092 60.405C845.262 60.2917 845.461 60.2067 845.687 60.15L877.902 51.225C878.582 51.055 879.036 50.9417 879.262 50.885C879.546 50.8283 879.857 50.8 880.197 50.8C880.594 50.8 880.877 50.9133 881.047 51.14C881.274 51.3667 881.387 51.65 881.387 51.99ZM865.662 45.955C860.506 45.955 856.312 44.3117 853.082 41.025C849.852 37.7383 848.237 33.715 848.237 28.955C848.237 24.195 849.852 20.1717 853.082 16.885C856.312 13.5983 860.506 11.955 865.662 11.955C870.876 11.955 875.126 13.5983 878.412 16.885C881.756 20.1717 883.427 24.195 883.427 28.955C883.427 33.715 881.756 37.7383 878.412 41.025C875.126 44.3117 870.876 45.955 865.662 45.955ZM941.32 51.14C949.423 51.14 956.563 52.84 962.74 56.24C968.973 59.64 973.846 64.3717 977.36 70.435C980.873 76.4417 982.63 83.3833 982.63 91.26C982.63 98.9667 980.788 105.795 977.105 111.745C973.478 117.638 968.463 122.285 962.06 125.685C955.656 129.028 948.29 130.7 939.96 130.7C931.856 130.7 924.688 129.028 918.455 125.685C912.278 122.342 907.433 117.723 903.92 111.83C900.406 105.88 898.65 99.0233 898.65 91.26C898.65 83.5533 900.491 76.6967 904.175 70.69C907.915 64.6267 912.986 59.8667 919.39 56.41C925.85 52.8967 933.16 51.14 941.32 51.14ZM946.165 129C948.205 128.717 949.706 127.13 950.67 124.24C951.69 121.35 952.171 117.043 952.115 111.32C952.058 105.597 951.406 98.4 950.16 89.73C948.913 81.06 947.525 73.9767 945.995 68.48C944.521 62.9267 942.906 58.9033 941.15 56.41C939.393 53.86 937.466 52.755 935.37 53.095C933.386 53.435 931.885 55.05 930.865 57.94C929.901 60.83 929.476 65.1083 929.59 70.775C929.703 76.4417 930.355 83.61 931.545 92.28C932.791 100.95 934.151 108.062 935.625 113.615C937.098 119.112 938.713 123.135 940.47 125.685C942.226 128.178 944.125 129.283 946.165 129ZM1031.52 51.99V123.56C1031.52 124.467 1031.66 125.203 1031.95 125.77C1032.29 126.28 1032.82 126.62 1033.56 126.79L1036.79 127.555C1037.47 127.725 1037.81 127.98 1037.81 128.32C1037.81 128.773 1037.53 129 1036.96 129H995.31C995.083 129 994.885 128.943 994.715 128.83C994.545 128.717 994.46 128.547 994.46 128.32C994.46 128.15 994.517 128.008 994.63 127.895C994.8 127.725 995.083 127.612 995.48 127.555L998.71 126.79C999.503 126.62 1000.04 126.28 1000.33 125.77C1000.61 125.203 1000.75 124.467 1000.75 123.56V63.04C1000.75 62.5867 1000.64 62.2467 1000.41 62.02C1000.18 61.7933 999.815 61.68 999.305 61.68H995.99C995.593 61.68 995.31 61.6233 995.14 61.51C995.027 61.34 994.97 61.1417 994.97 60.915C994.97 60.6883 995.055 60.5183 995.225 60.405C995.395 60.2917 995.593 60.2067 995.82 60.15L1028.04 51.225C1028.72 51.055 1029.17 50.9417 1029.4 50.885C1029.68 50.8283 1029.99 50.8 1030.33 50.8C1030.73 50.8 1031.01 50.9133 1031.18 51.14C1031.41 51.3667 1031.52 51.65 1031.52 51.99ZM1028.97 71.285L1027.78 70.01L1031.18 67.035C1037.13 61.8217 1042.46 57.8833 1047.16 55.22C1051.86 52.5 1056.06 51.14 1059.74 51.14C1064.78 51.14 1068.69 52.585 1071.47 55.475C1074.3 58.3083 1076.06 62.9267 1076.74 69.33L1082.52 123.56C1082.63 124.467 1082.8 125.203 1083.03 125.77C1083.31 126.28 1083.82 126.62 1084.56 126.79L1087.79 127.555C1088.19 127.612 1088.44 127.725 1088.56 127.895C1088.73 128.008 1088.81 128.15 1088.81 128.32C1088.81 128.547 1088.73 128.717 1088.56 128.83C1088.44 128.943 1088.24 129 1087.96 129H1045.55C1044.98 129 1044.7 128.773 1044.7 128.32C1044.7 127.98 1045.04 127.725 1045.72 127.555L1048.95 126.79C1049.74 126.62 1050.31 126.28 1050.65 125.77C1050.99 125.203 1051.1 124.467 1050.99 123.56L1046.48 72.56C1046.25 69.7833 1045.69 67.7717 1044.78 66.525C1043.87 65.2217 1042.4 64.57 1040.36 64.57C1038.94 64.57 1037.56 64.9383 1036.2 65.675C1034.89 66.355 1033.56 67.29 1032.2 68.48L1028.97 71.285Z" fill="url(#paint0_linear_24_13)"/>
<defs>
<linearGradient id="paint0_linear_24_13" x1="-2" y1="18" x2="-2" y2="122" gradientUnits="userSpaceOnUse">
<stop stop-color="#FEFCF7" stop-opacity="0.01"/>
<stop offset="1" stop-color="#FEFCF7" stop-opacity="0.92"/>
<stop offset="1" stop-color="#FEFCF7"/>
</linearGradient>
</defs>
</svg>
