<svg width="41" height="50" viewBox="0 0 41 50" fill="none" xmlns="http://www.w3.org/2000/svg">
<path id="Combined Shape" fill-rule="evenodd" clip-rule="evenodd" d="M5.68412 5.96991L5.68411 5.96991C5.64421 5.94778 5.60386 5.92541 5.55962 5.89592H5.56796C5.57069 5.89136 5.57402 5.88651 5.57756 5.88135L5.57757 5.88134C5.58481 5.87078 5.59292 5.85898 5.59851 5.84592C5.60962 5.84175 5.62143 5.83828 5.63323 5.83481L5.63325 5.8348C5.64505 5.83133 5.65685 5.82786 5.66796 5.8237C5.73325 5.87034 5.75595 5.91948 5.7798 5.97113C5.79146 5.99639 5.8034 6.02224 5.82074 6.0487C8.28462 7.59592 9.6624 6.76536 10.6263 4.60703C10.7596 4.29592 10.8874 3.95981 11.0124 3.60148C12.1508 0.257702 14.8292 0.217001 17.4196 0.177637C18.2487 0.16504 19.0687 0.152579 19.8263 0.0320308C21.6541 -0.25408 21.0707 1.4487 20.2791 2.26814C20.0177 2.54211 19.7106 2.77277 19.3926 3.01165C18.5916 3.61322 17.7211 4.26696 17.3374 5.79592C18.0761 5.79592 18.7833 5.80054 19.4688 5.80502C20.9743 5.81486 22.3753 5.82402 23.7763 5.78203C26.3957 5.70425 26.8402 6.65703 25.3957 8.77647C25.0793 9.24365 24.8234 9.75426 24.5681 10.2638L24.5681 10.2638C24.2495 10.8995 23.9318 11.5334 23.4985 12.0793C21.9846 13.9737 22.018 15.2681 24.5013 16.1515C25.1263 16.3737 25.9318 16.9293 26.0902 17.4931C26.844 20.1643 28.6486 22.1715 30.4481 24.173C32.4417 26.3904 34.4289 28.6006 34.9735 31.6987C34.9988 31.8413 35.0162 31.9733 35.032 32.0942C35.1187 32.7554 35.1618 33.0847 36.2374 32.9931C38.0707 32.8209 40.2402 32.7987 40.7513 35.1376C41.243 37.3681 39.6513 38.7876 37.9485 39.9654C37.7166 40.1238 37.5398 40.3563 37.3424 40.6159L37.3423 40.616L37.3423 40.616C37.256 40.7295 37.1657 40.8482 37.0652 40.9681C37.2223 41.6535 37.8162 41.6716 38.3722 41.6887C38.9272 41.7057 39.4444 41.7215 39.4513 42.3987C39.4624 43.5265 38.2541 44.0515 37.418 44.3098C33.1541 45.6348 28.6624 46.0848 24.2902 45.9959C21.9563 45.9444 19.9134 46.6903 17.8815 47.4322C16.4069 47.9707 14.938 48.507 13.368 48.7348C13.138 48.7691 12.9123 48.8205 12.6821 48.8729C11.8501 49.0623 10.9603 49.2649 9.60685 48.7209C11.2118 48.138 12.272 46.9564 13.34 45.766C14.9339 43.9897 16.5451 42.194 20.0096 42.3404C19.4031 42.0884 18.916 41.8828 18.5069 41.7102L18.5039 41.709L18.5037 41.7089L18.5036 41.7088L18.5036 41.7088C17.706 41.3723 17.2049 41.1609 16.693 40.9737C14.3624 40.132 14.0513 38.4959 15.7902 36.6015C16.7707 35.5376 17.4485 34.3959 15.2263 33.9348C14.0047 33.6831 14.2962 33.1604 14.6194 32.5808C14.8526 32.1628 15.1023 31.7151 14.8124 31.3181C14.4402 30.807 15.6624 30.6626 16.368 30.7515C18.4568 31.0209 21.4096 31.382 20.5985 28.3293C20.5326 28.0825 20.4702 27.8046 20.4036 27.5083L20.4036 27.508L20.4035 27.5079C19.9425 25.4555 19.2834 22.5212 15.9096 22.9654C12.2541 23.4459 11.1068 22.5404 13.393 19.2237C12.928 19.0156 12.2846 19.256 11.6679 19.4864C10.4978 19.9235 9.42372 20.3247 9.84574 17.5598C9.87074 17.3848 9.52629 16.9654 9.45685 16.9848C9.19109 17.069 8.91952 17.3324 8.64956 17.5942L8.64955 17.5942C8.06455 18.1616 7.48713 18.7216 6.99296 17.4348C6.64035 16.5175 7.23708 16.2749 7.93752 15.9902C8.64967 15.7008 9.46904 15.3677 9.50685 14.2376C9.45171 14.0587 9.04048 14.0547 8.5978 14.0503C7.85845 14.0432 7.03138 14.0351 7.62907 13.2098C9.61863 10.4647 8.09647 9.31108 6.39343 8.02036L6.39337 8.02032L6.39321 8.0202C6.2179 7.88733 6.04068 7.75302 5.86518 7.61536C5.63498 7.43611 5.7188 7.16585 5.80844 6.87686C5.85076 6.74041 5.89437 6.59978 5.90685 6.46259C5.90685 6.45842 5.90546 6.45287 5.90407 6.44732L5.90407 6.44731C5.90268 6.44175 5.90129 6.4362 5.90129 6.43203C5.90962 6.30148 5.89574 6.16814 5.81518 6.0487C5.76919 6.01708 5.72691 5.99364 5.68413 5.96992L5.68412 5.96991ZM1.14296 26.1876C0.581846 26.0959 -0.0570426 25.507 0.00406849 24.6598C0.126291 23.1043 4.86796 19.9348 6.97351 20.0598C8.91265 20.1665 9.53799 21.4844 10.1258 22.7231C10.364 23.2251 10.596 23.7141 10.9068 24.1043C10.8152 25.9376 9.70685 26.9737 8.51518 26.9793C6.17518 27.0084 3.81752 26.6238 1.48787 26.2438L1.14296 26.1876ZM7.85685 0.879253C5.23185 1.57925 3.71796 2.9737 3.90407 5.79314C2.14569 5.9661 2.65575 6.68123 3.12585 7.34034C3.19936 7.44341 3.27189 7.5451 3.33462 7.64314C3.47034 7.33439 3.70655 7.04428 3.95025 6.74499L3.95026 6.74498C4.10559 6.55421 4.26396 6.3597 4.40129 6.15425C4.55544 6.11437 4.71001 6.07365 4.86467 6.0329L4.86486 6.03285C5.10868 5.96861 5.35273 5.90432 5.59574 5.84314C5.83252 5.32113 6.2396 4.87975 6.6525 4.43206C7.49417 3.51948 8.36001 2.58069 7.85685 0.879253ZM3.24018 8.42648C3.6624 8.27925 3.54851 7.98481 3.33185 7.64314C3.22351 7.88203 3.15962 8.13203 3.24018 8.42648Z" fill="#0E8784"/>
</svg>
